<?xml version="1.0" encoding="UTF-8" standalone="no"?><!-- Generator: Gravit.io --><svg xmlns="http://www.w3.org/2000/svg" xmlns:xlink="http://www.w3.org/1999/xlink" style="isolation:isolate" viewBox="1025.283 1381 200 200" width="200pt" height="200pt"><g style="isolation:isolate"><g><rect x="1025.283" y="1381" width="200" height="200" transform="matrix(1,0,0,1,0,0)" fill="none"/><rect x="1050.283" y="1393.167" width="150" height="150" transform="matrix(1,0,0,1,0,0)" fill="none"/><path d=" M 1124.763 1570.693 L 1125.583 1564.893 L 1124.723 1564.893 L 1124.723 1563.293 L 1125.823 1563.293 L 1126.103 1561.353 L 1124.763 1561.353 L 1124.763 1559.733 L 1126.323 1559.733 L 1127.083 1554.493 L 1129.223 1554.493 L 1128.463 1559.733 L 1130.263 1559.733 L 1131.023 1554.493 L 1133.143 1554.493 L 1132.383 1559.733 L 1133.203 1559.733 L 1133.203 1561.353 L 1132.163 1561.353 L 1131.863 1563.293 L 1133.143 1563.293 L 1133.143 1564.893 L 1131.643 1564.893 L 1130.803 1570.693 L 1128.663 1570.693 L 1129.503 1564.893 L 1127.723 1564.893 L 1126.903 1570.693 L 1124.763 1570.693 L 1124.763 1570.693 Z  M 1127.943 1563.293 L 1129.743 1563.293 L 1130.023 1561.353 L 1128.243 1561.353 L 1127.943 1563.293 L 1127.943 1563.293 Z  M 1119.103 1570.873 L 1119.103 1570.873 Q 1116.703 1570.873 1115.723 1569.443 L 1115.723 1569.443 L 1115.723 1569.443 Q 1114.743 1568.013 1114.743 1565.493 L 1114.743 1565.493 L 1114.743 1559.773 L 1114.743 1559.773 Q 1114.743 1557.113 1115.703 1555.733 L 1115.703 1555.733 L 1115.703 1555.733 Q 1116.663 1554.353 1119.103 1554.353 L 1119.103 1554.353 L 1119.103 1554.353 Q 1121.283 1554.353 1122.233 1555.533 L 1122.233 1555.533 L 1122.233 1555.533 Q 1123.183 1556.713 1123.183 1559.013 L 1123.183 1559.013 L 1123.183 1560.293 L 1121.043 1560.293 L 1121.043 1559.153 L 1121.043 1559.153 Q 1121.043 1558.033 1120.943 1557.433 L 1120.943 1557.433 L 1120.943 1557.433 Q 1120.843 1556.833 1120.433 1556.473 L 1120.433 1556.473 L 1120.433 1556.473 Q 1120.023 1556.113 1119.123 1556.113 L 1119.123 1556.113 L 1119.123 1556.113 Q 1118.203 1556.113 1117.753 1556.503 L 1117.753 1556.503 L 1117.753 1556.503 Q 1117.303 1556.893 1117.163 1557.583 L 1117.163 1557.583 L 1117.163 1557.583 Q 1117.023 1558.273 1117.023 1559.433 L 1117.023 1559.433 L 1117.023 1565.853 L 1117.023 1565.853 Q 1117.023 1567.093 1117.223 1567.793 L 1117.223 1567.793 L 1117.223 1567.793 Q 1117.423 1568.493 1117.873 1568.793 L 1117.873 1568.793 L 1117.873 1568.793 Q 1118.323 1569.093 1119.123 1569.093 L 1119.123 1569.093 L 1119.123 1569.093 Q 1119.983 1569.093 1120.403 1568.713 L 1120.403 1568.713 L 1120.403 1568.713 Q 1120.823 1568.333 1120.933 1567.673 L 1120.933 1567.673 L 1120.933 1567.673 Q 1121.043 1567.013 1121.043 1565.873 L 1121.043 1565.873 L 1121.043 1564.673 L 1123.183 1564.673 L 1123.183 1565.873 L 1123.183 1565.873 Q 1123.183 1568.293 1122.273 1569.583 L 1122.273 1569.583 L 1122.273 1569.583 Q 1121.363 1570.873 1119.103 1570.873 L 1119.103 1570.873 L 1119.103 1570.873 Z " fill="rgb(255,255,255)"/><g><path d=" M 1191.97 1429.219 C 1191.97 1426.713 1191.436 1424.453 1190.326 1422.563 C 1189.258 1420.673 1187.656 1419.112 1185.519 1417.879 C 1167.769 1407.648 1149.978 1397.417 1132.227 1387.186 C 1127.42 1384.433 1122.818 1384.515 1118.052 1387.309 C 1110.984 1391.459 1075.566 1411.757 1065.048 1417.879 C 1060.692 1420.385 1058.597 1424.248 1058.597 1429.261 L 1058.597 1491.058 C 1058.597 1493.523 1059.131 1495.7 1060.158 1497.591 C 1061.226 1499.522 1062.87 1501.165 1065.048 1502.439 C 1075.607 1508.561 1110.984 1528.818 1118.052 1533.009 C 1122.818 1535.802 1127.461 1535.926 1132.227 1533.132 C 1149.978 1522.86 1167.769 1512.67 1185.519 1502.439 C 1187.738 1501.165 1189.34 1499.563 1190.408 1497.591 C 1191.436 1495.7 1191.97 1493.523 1191.97 1491.058 L 1191.97 1429.219 Z " fill="rgb(154,73,147)"/><path d=" M 1125.448 1459.912 L 1060.076 1497.549 C 1061.144 1499.481 1062.788 1501.124 1064.965 1502.398 C 1075.525 1508.52 1110.902 1528.777 1117.97 1532.968 C 1122.736 1535.762 1127.379 1535.885 1132.145 1533.091 C 1149.895 1522.819 1167.687 1512.629 1185.437 1502.398 C 1187.656 1501.124 1189.258 1499.522 1190.326 1497.549 L 1125.448 1459.912 Z " fill="rgb(106,21,119)"/><path d=" M 1106.095 1471.047 C 1109.916 1477.704 1117.066 1482.182 1125.242 1482.182 C 1133.501 1482.182 1140.691 1477.663 1144.472 1470.924 L 1125.448 1459.912 L 1106.095 1471.047 Z " fill="rgb(106,21,119)"/><path d=" M 1191.97 1429.219 C 1191.97 1426.713 1191.436 1424.453 1190.326 1422.563 L 1125.448 1459.912 L 1190.408 1497.55 C 1191.436 1495.659 1191.97 1493.482 1191.97 1491.016 L 1191.97 1429.219 Z " fill="rgb(129,48,132)"/><g><path d=" M 1144.472 1470.924 C 1140.692 1477.622 1133.501 1482.182 1125.242 1482.182 C 1117.025 1482.182 1109.875 1477.704 1106.095 1471.047 C 1104.246 1467.801 1103.178 1464.104 1103.178 1460.118 C 1103.178 1447.915 1113.039 1438.053 1125.242 1438.053 C 1133.378 1438.053 1140.486 1442.491 1144.307 1449.065 L 1163.578 1437.971 C 1155.894 1424.741 1141.595 1415.825 1125.201 1415.825 C 1100.712 1415.825 1080.908 1435.67 1080.908 1460.118 C 1080.908 1468.13 1083.044 1475.691 1086.783 1482.182 C 1094.426 1495.454 1108.807 1504.411 1125.242 1504.411 C 1141.719 1504.411 1156.1 1495.413 1163.742 1482.059 L 1144.472 1470.924 Z  M 1168.837 1449.64 L 1164.441 1449.64 L 1164.441 1470.883 L 1168.837 1470.883 L 1168.837 1449.64 Z  M 1178.575 1449.64 L 1174.179 1449.64 L 1174.179 1470.883 L 1178.575 1470.883 L 1178.575 1449.64 Z " fill="rgb(255,255,255)"/><path d=" M 1182.15 1453.215 L 1160.907 1453.215 L 1160.907 1457.612 L 1182.15 1457.612 L 1182.15 1453.215 Z  M 1182.15 1462.912 L 1160.907 1462.912 L 1160.907 1467.308 L 1182.15 1467.308 L 1182.15 1462.912 Z " fill="rgb(255,255,255)"/></g></g></g></g></svg>