<?xml version="1.0" encoding="UTF-8" standalone="no"?><!-- Generator: Gravit.io --><svg xmlns="http://www.w3.org/2000/svg" xmlns:xlink="http://www.w3.org/1999/xlink" style="isolation:isolate" viewBox="620 1148 200 200" width="200pt" height="200pt"><g style="isolation:isolate"><g><rect x="620" y="1148" width="200" height="200" transform="matrix(1,0,0,1,0,0)" fill="none"/><path d=" M 694.76 1337.693 L 694.76 1321.493 L 697.02 1321.493 L 697.02 1328.493 L 701.18 1328.493 L 701.18 1321.493 L 703.44 1321.493 L 703.44 1337.693 L 701.18 1337.693 L 701.18 1330.113 L 697.02 1330.113 L 697.02 1337.693 L 694.76 1337.693 L 694.76 1337.693 Z  M 707.76 1337.693 L 707.76 1323.173 L 705.02 1323.173 L 705.02 1321.493 L 712.68 1321.493 L 712.68 1323.173 L 710.02 1323.173 L 710.02 1337.693 L 707.76 1337.693 L 707.76 1337.693 Z  M 714.2 1337.693 L 714.5 1321.493 L 716.72 1321.493 L 719.58 1334.633 L 722.46 1321.493 L 724.66 1321.493 L 724.96 1337.693 L 723.14 1337.693 L 722.96 1325.933 L 720.22 1337.693 L 718.94 1337.693 L 716.22 1325.933 L 716.04 1337.693 L 714.2 1337.693 L 714.2 1337.693 Z  M 727.44 1337.693 L 727.44 1321.493 L 729.7 1321.493 L 729.7 1336.073 L 733.84 1336.073 L 733.84 1337.693 L 727.44 1337.693 L 727.44 1337.693 Z  M 738.98 1337.853 L 738.98 1337.853 Q 736.88 1337.853 735.97 1336.663 L 735.97 1336.663 L 735.97 1336.663 Q 735.06 1335.473 735.06 1333.153 L 735.06 1333.153 L 737.2 1333.153 L 737.2 1333.153 Q 737.2 1334.513 737.57 1335.333 L 737.57 1335.333 L 737.57 1335.333 Q 737.94 1336.153 739.02 1336.153 L 739.02 1336.153 L 739.02 1336.153 Q 739.84 1336.153 740.24 1335.673 L 740.24 1335.673 L 740.24 1335.673 Q 740.64 1335.193 740.75 1334.403 L 740.75 1334.403 L 740.75 1334.403 Q 740.86 1333.613 740.86 1332.293 L 740.86 1332.293 L 740.86 1332.293 Q 740.86 1331.073 740.73 1330.343 L 740.73 1330.343 L 740.73 1330.343 Q 740.6 1329.613 740.21 1329.223 L 740.21 1329.223 L 740.21 1329.223 Q 739.82 1328.833 739.04 1328.833 L 739.04 1328.833 L 739.04 1328.833 Q 738.42 1328.833 737.95 1329.213 L 737.95 1329.213 L 737.95 1329.213 Q 737.48 1329.593 737.24 1330.173 L 737.24 1330.173 L 735.42 1330.173 L 735.42 1321.493 L 742.4 1321.493 L 742.4 1323.633 L 737.36 1323.633 L 737.22 1328.113 L 737.22 1328.113 Q 738.08 1327.213 739.56 1327.213 L 739.56 1327.213 L 739.56 1327.213 Q 741.42 1327.213 742.21 1328.483 L 742.21 1328.483 L 742.21 1328.483 Q 743 1329.753 743 1332.013 L 743 1332.013 L 743 1332.013 Q 743 1334.773 742.1 1336.313 L 742.1 1336.313 L 742.1 1336.313 Q 741.2 1337.853 738.98 1337.853 L 738.98 1337.853 L 738.98 1337.853 Z " fill="rgb(255,255,255)"/><g><path d=" M 665.905 1295.589 L 653.869 1160.583 L 786.131 1160.583 L 774.082 1295.568 L 719.919 1310.583 L 665.905 1295.589 Z " fill="rgb(228,77,38)"/><path d=" M 720 1299.106 L 763.766 1286.972 L 774.063 1171.622 L 720 1171.622 L 720 1299.106 Z " fill="rgb(241,101,41)"/><path d=" M 720 1221.694 L 698.09 1221.694 L 696.576 1204.738 L 720 1204.738 L 720 1188.18 L 719.943 1188.18 L 678.481 1188.18 L 678.877 1192.622 L 682.947 1238.251 L 720 1238.251 L 720 1221.694 Z " fill="rgb(235,235,235)"/><path d=" M 720 1264.696 L 719.927 1264.716 L 701.487 1259.736 L 700.308 1246.531 L 691.347 1246.531 L 683.686 1246.531 L 686.006 1272.529 L 719.924 1281.944 L 720 1281.923 L 720 1264.696 Z " fill="rgb(235,235,235)"/><path d=" M 719.943 1221.694 L 719.943 1238.251 L 740.332 1238.251 L 738.41 1259.726 L 719.943 1264.71 L 719.943 1281.936 L 753.887 1272.529 L 754.136 1269.731 L 758.027 1226.14 L 758.431 1221.694 L 753.969 1221.694 L 719.943 1221.694 Z " fill="rgb(255,255,255)"/><path d=" M 719.943 1188.18 L 719.943 1198.464 L 719.943 1204.698 L 719.943 1204.738 L 759.885 1204.738 L 759.885 1204.738 L 759.938 1204.738 L 760.27 1201.016 L 761.024 1192.622 L 761.42 1188.18 L 719.943 1188.18 Z " fill="rgb(255,255,255)"/></g></g></g></svg>