<?xml version="1.0" encoding="UTF-8" standalone="no"?><!-- Generator: Gravit.io --><svg xmlns="http://www.w3.org/2000/svg" xmlns:xlink="http://www.w3.org/1999/xlink" style="isolation:isolate" viewBox="209.433 1148 200 200" width="200pt" height="200pt"><g style="isolation:isolate"><clipPath id="_clipPath_PX0UgSySQtZ4Biox8VmYordqfbTuUQoc"><rect x="209.433" y="1148" width="200" height="200" transform="matrix(1,0,0,1,0,0)" fill="rgb(255,255,255)"/></clipPath><g clip-path="url(#_clipPath_PX0UgSySQtZ4Biox8VmYordqfbTuUQoc)"><path d=" M 272.073 1342.6 L 272.073 1340.98 L 272.073 1340.98 Q 273.093 1340.98 273.583 1340.79 L 273.583 1340.79 L 273.583 1340.79 Q 274.073 1340.6 274.253 1340.09 L 274.253 1340.09 L 274.253 1340.09 Q 274.433 1339.58 274.433 1338.52 L 274.433 1338.52 L 274.433 1326.02 L 276.673 1326.02 L 276.673 1338.56 L 276.673 1338.56 Q 276.673 1340.02 276.373 1340.89 L 276.373 1340.89 L 276.373 1340.89 Q 276.073 1341.76 275.303 1342.18 L 275.303 1342.18 L 275.303 1342.18 Q 274.533 1342.6 273.153 1342.6 L 273.153 1342.6 L 272.073 1342.6 L 272.073 1342.6 Z  M 281.113 1342.38 L 281.113 1342.38 Q 280.453 1342.38 279.923 1342 L 279.923 1342 L 279.923 1342 Q 279.393 1341.62 279.093 1341 L 279.093 1341 L 279.093 1341 Q 278.793 1340.38 278.793 1339.7 L 278.793 1339.7 L 278.793 1339.7 Q 278.793 1338.34 279.373 1337.49 L 279.373 1337.49 L 279.373 1337.49 Q 279.953 1336.64 280.853 1336.14 L 280.853 1336.14 L 280.853 1336.14 Q 281.753 1335.64 283.353 1335 L 283.353 1335 L 283.353 1334.18 L 283.353 1334.18 Q 283.353 1333.04 283.123 1332.57 L 283.123 1332.57 L 283.123 1332.57 Q 282.893 1332.1 282.193 1332.1 L 282.193 1332.1 L 282.193 1332.1 Q 280.973 1332.1 280.973 1333.74 L 280.973 1333.74 L 280.973 1334.32 L 278.853 1334.24 L 278.853 1334.24 Q 278.893 1332.32 279.733 1331.41 L 279.733 1331.41 L 279.733 1331.41 Q 280.573 1330.5 282.333 1330.5 L 282.333 1330.5 L 282.333 1330.5 Q 283.993 1330.5 284.743 1331.41 L 284.743 1331.41 L 284.743 1331.41 Q 285.493 1332.32 285.493 1334.16 L 285.493 1334.16 L 285.493 1339.44 L 285.493 1339.44 Q 285.493 1340.74 285.693 1342.22 L 285.693 1342.22 L 283.733 1342.22 L 283.733 1342.22 Q 283.513 1341.08 283.453 1340.52 L 283.453 1340.52 L 283.453 1340.52 Q 283.213 1341.3 282.623 1341.84 L 282.623 1341.84 L 282.623 1341.84 Q 282.033 1342.38 281.113 1342.38 L 281.113 1342.38 L 281.113 1342.38 Z  M 281.953 1340.54 L 281.953 1340.54 Q 282.373 1340.54 282.773 1340.21 L 282.773 1340.21 L 282.773 1340.21 Q 283.173 1339.88 283.353 1339.58 L 283.353 1339.58 L 283.353 1336.3 L 283.353 1336.3 Q 282.493 1336.78 282.023 1337.13 L 282.023 1337.13 L 282.023 1337.13 Q 281.553 1337.48 281.243 1337.94 L 281.243 1337.94 L 281.243 1337.94 Q 280.933 1338.4 280.933 1339.04 L 280.933 1339.04 L 280.933 1339.04 Q 280.933 1339.76 281.193 1340.15 L 281.193 1340.15 L 281.193 1340.15 Q 281.453 1340.54 281.953 1340.54 L 281.953 1340.54 L 281.953 1340.54 Z  M 289.053 1342.22 L 286.773 1330.66 L 288.933 1330.66 L 290.353 1339.96 L 291.793 1330.66 L 293.873 1330.66 L 291.673 1342.22 L 289.053 1342.22 L 289.053 1342.22 Z  M 297.333 1342.38 L 297.333 1342.38 Q 296.673 1342.38 296.143 1342 L 296.143 1342 L 296.143 1342 Q 295.613 1341.62 295.313 1341 L 295.313 1341 L 295.313 1341 Q 295.013 1340.38 295.013 1339.7 L 295.013 1339.7 L 295.013 1339.7 Q 295.013 1338.34 295.593 1337.49 L 295.593 1337.49 L 295.593 1337.49 Q 296.173 1336.64 297.073 1336.14 L 297.073 1336.14 L 297.073 1336.14 Q 297.973 1335.64 299.573 1335 L 299.573 1335 L 299.573 1334.18 L 299.573 1334.18 Q 299.573 1333.04 299.343 1332.57 L 299.343 1332.57 L 299.343 1332.57 Q 299.113 1332.1 298.413 1332.1 L 298.413 1332.1 L 298.413 1332.1 Q 297.193 1332.1 297.193 1333.74 L 297.193 1333.74 L 297.193 1334.32 L 295.073 1334.24 L 295.073 1334.24 Q 295.113 1332.32 295.953 1331.41 L 295.953 1331.41 L 295.953 1331.41 Q 296.793 1330.5 298.553 1330.5 L 298.553 1330.5 L 298.553 1330.5 Q 300.213 1330.5 300.963 1331.41 L 300.963 1331.41 L 300.963 1331.41 Q 301.713 1332.32 301.713 1334.16 L 301.713 1334.16 L 301.713 1339.44 L 301.713 1339.44 Q 301.713 1340.74 301.913 1342.22 L 301.913 1342.22 L 299.953 1342.22 L 299.953 1342.22 Q 299.733 1341.08 299.673 1340.52 L 299.673 1340.52 L 299.673 1340.52 Q 299.433 1341.3 298.843 1341.84 L 298.843 1341.84 L 298.843 1341.84 Q 298.253 1342.38 297.333 1342.38 L 297.333 1342.38 L 297.333 1342.38 Z  M 298.173 1340.54 L 298.173 1340.54 Q 298.593 1340.54 298.993 1340.21 L 298.993 1340.21 L 298.993 1340.21 Q 299.393 1339.88 299.573 1339.58 L 299.573 1339.58 L 299.573 1336.3 L 299.573 1336.3 Q 298.713 1336.78 298.243 1337.13 L 298.243 1337.13 L 298.243 1337.13 Q 297.773 1337.48 297.463 1337.94 L 297.463 1337.94 L 297.463 1337.94 Q 297.153 1338.4 297.153 1339.04 L 297.153 1339.04 L 297.153 1339.04 Q 297.153 1339.76 297.413 1340.15 L 297.413 1340.15 L 297.413 1340.15 Q 297.673 1340.54 298.173 1340.54 L 298.173 1340.54 L 298.173 1340.54 Z  M 306.453 1342.38 L 306.453 1342.38 Q 305.053 1342.38 304.183 1341.5 L 304.183 1341.5 L 304.183 1341.5 Q 303.313 1340.62 303.193 1339.14 L 303.193 1339.14 L 304.973 1338.6 L 304.973 1338.6 Q 305.133 1339.72 305.523 1340.26 L 305.523 1340.26 L 305.523 1340.26 Q 305.913 1340.8 306.633 1340.8 L 306.633 1340.8 L 306.633 1340.8 Q 307.193 1340.8 307.503 1340.47 L 307.503 1340.47 L 307.503 1340.47 Q 307.813 1340.14 307.813 1339.58 L 307.813 1339.58 L 307.813 1339.58 Q 307.813 1339.08 307.593 1338.68 L 307.593 1338.68 L 307.593 1338.68 Q 307.373 1338.28 306.873 1337.86 L 306.873 1337.86 L 304.893 1336.16 L 304.893 1336.16 Q 304.213 1335.58 303.843 1334.93 L 303.843 1334.93 L 303.843 1334.93 Q 303.473 1334.28 303.473 1333.34 L 303.473 1333.34 L 303.473 1333.34 Q 303.473 1332 304.273 1331.25 L 304.273 1331.25 L 304.273 1331.25 Q 305.073 1330.5 306.453 1330.5 L 306.453 1330.5 L 306.453 1330.5 Q 307.773 1330.5 308.523 1331.35 L 308.523 1331.35 L 308.523 1331.35 Q 309.273 1332.2 309.393 1333.54 L 309.393 1333.54 L 307.953 1334.08 L 307.953 1334.08 Q 307.813 1333.1 307.493 1332.59 L 307.493 1332.59 L 307.493 1332.59 Q 307.173 1332.08 306.533 1332.08 L 306.533 1332.08 L 306.533 1332.08 Q 306.013 1332.08 305.703 1332.42 L 305.703 1332.42 L 305.703 1332.42 Q 305.393 1332.76 305.393 1333.26 L 305.393 1333.26 L 305.393 1333.26 Q 305.393 1333.9 305.973 1334.42 L 305.973 1334.42 L 308.013 1336.3 L 308.013 1336.3 Q 308.793 1337.02 309.223 1337.72 L 309.223 1337.72 L 309.223 1337.72 Q 309.653 1338.42 309.653 1339.42 L 309.653 1339.42 L 309.653 1339.42 Q 309.653 1340.86 308.793 1341.62 L 308.793 1341.62 L 308.793 1341.62 Q 307.933 1342.38 306.453 1342.38 L 306.453 1342.38 L 306.453 1342.38 Z  M 314.413 1342.38 L 314.413 1342.38 Q 313.053 1342.38 312.313 1341.83 L 312.313 1341.83 L 312.313 1341.83 Q 311.573 1341.28 311.303 1340.29 L 311.303 1340.29 L 311.303 1340.29 Q 311.033 1339.3 311.033 1337.78 L 311.033 1337.78 L 311.033 1335.12 L 311.033 1335.12 Q 311.033 1333.56 311.303 1332.56 L 311.303 1332.56 L 311.303 1332.56 Q 311.573 1331.56 312.313 1331.03 L 312.313 1331.03 L 312.313 1331.03 Q 313.053 1330.5 314.413 1330.5 L 314.413 1330.5 L 314.413 1330.5 Q 315.653 1330.5 316.343 1330.9 L 316.343 1330.9 L 316.343 1330.9 Q 317.033 1331.3 317.303 1332.09 L 317.303 1332.09 L 317.303 1332.09 Q 317.573 1332.88 317.573 1334.14 L 317.573 1334.14 L 317.573 1334.82 L 315.633 1334.82 L 315.633 1334.12 L 315.633 1334.12 Q 315.633 1332.98 315.383 1332.53 L 315.383 1332.53 L 315.383 1332.53 Q 315.133 1332.08 314.433 1332.08 L 314.433 1332.08 L 314.433 1332.08 Q 313.893 1332.08 313.633 1332.32 L 313.633 1332.32 L 313.633 1332.32 Q 313.373 1332.56 313.273 1333.1 L 313.273 1333.1 L 313.273 1333.1 Q 313.173 1333.64 313.173 1334.68 L 313.173 1334.68 L 313.173 1338.32 L 313.173 1338.32 Q 313.173 1339.32 313.293 1339.85 L 313.293 1339.85 L 313.293 1339.85 Q 313.413 1340.38 313.683 1340.59 L 313.683 1340.59 L 313.683 1340.59 Q 313.953 1340.8 314.453 1340.8 L 314.453 1340.8 L 314.453 1340.8 Q 315.193 1340.8 315.413 1340.31 L 315.413 1340.31 L 315.413 1340.31 Q 315.633 1339.82 315.633 1338.8 L 315.633 1338.8 L 315.633 1337.86 L 317.573 1337.86 L 317.573 1338.66 L 317.573 1338.66 Q 317.573 1340.54 316.883 1341.46 L 316.883 1341.46 L 316.883 1341.46 Q 316.193 1342.38 314.413 1342.38 L 314.413 1342.38 L 314.413 1342.38 Z  M 319.533 1342.22 L 319.533 1330.66 L 321.673 1330.66 L 321.673 1332.3 L 321.673 1332.3 Q 322.273 1331.32 322.903 1330.92 L 322.903 1330.92 L 322.903 1330.92 Q 323.533 1330.52 324.233 1330.52 L 324.233 1330.52 L 324.233 1330.52 Q 324.413 1330.52 324.573 1330.54 L 324.573 1330.54 L 324.573 1332.9 L 324.573 1332.9 Q 323.933 1332.66 323.393 1332.66 L 323.393 1332.66 L 323.393 1332.66 Q 322.873 1332.66 322.463 1332.91 L 322.463 1332.91 L 322.463 1332.91 Q 322.053 1333.16 321.673 1333.78 L 321.673 1333.78 L 321.673 1342.22 L 319.533 1342.22 L 319.533 1342.22 Z  M 326.033 1328.94 L 326.033 1326.7 L 328.173 1326.7 L 328.173 1328.94 L 326.033 1328.94 L 326.033 1328.94 Z  M 326.033 1342.22 L 326.033 1330.66 L 328.173 1330.66 L 328.173 1342.22 L 326.033 1342.22 L 326.033 1342.22 Z  M 330.473 1346.02 L 330.473 1330.66 L 332.613 1330.66 L 332.613 1331.58 L 332.613 1331.58 Q 333.553 1330.5 334.813 1330.5 L 334.813 1330.5 L 334.813 1330.5 Q 336.393 1330.5 336.923 1331.85 L 336.923 1331.85 L 336.923 1331.85 Q 337.453 1333.2 337.453 1334.84 L 337.453 1334.84 L 337.453 1337.64 L 337.453 1337.64 Q 337.453 1339.76 336.803 1341.07 L 336.803 1341.07 L 336.803 1341.07 Q 336.153 1342.38 334.573 1342.38 L 334.573 1342.38 L 334.573 1342.38 Q 333.553 1342.38 332.613 1341.36 L 332.613 1341.36 L 332.613 1346.02 L 330.473 1346.02 L 330.473 1346.02 Z  M 334.153 1340.7 L 334.153 1340.7 Q 334.893 1340.7 335.103 1339.95 L 335.103 1339.95 L 335.103 1339.95 Q 335.313 1339.2 335.313 1337.64 L 335.313 1337.64 L 335.313 1334.84 L 335.313 1334.84 Q 335.313 1333.56 335.073 1332.87 L 335.073 1332.87 L 335.073 1332.87 Q 334.833 1332.18 334.073 1332.18 L 334.073 1332.18 L 334.073 1332.18 Q 333.333 1332.18 332.613 1332.78 L 332.613 1332.78 L 332.613 1340.18 L 332.613 1340.18 Q 333.313 1340.7 334.153 1340.7 L 334.153 1340.7 L 334.153 1340.7 Z  M 342.473 1342.38 L 342.473 1342.38 Q 339.973 1342.38 339.973 1339.62 L 339.973 1339.62 L 339.973 1332.08 L 338.753 1332.08 L 338.753 1330.66 L 339.973 1330.66 L 339.973 1327.28 L 342.113 1327.28 L 342.113 1330.66 L 343.973 1330.66 L 343.973 1332.08 L 342.113 1332.08 L 342.113 1339.48 L 342.113 1339.48 Q 342.113 1340.18 342.333 1340.46 L 342.333 1340.46 L 342.333 1340.46 Q 342.553 1340.74 343.173 1340.74 L 343.173 1340.74 L 343.173 1340.74 Q 343.573 1340.74 343.953 1340.68 L 343.953 1340.68 L 343.953 1342.26 L 343.953 1342.26 Q 343.153 1342.38 342.473 1342.38 L 342.473 1342.38 L 342.473 1342.38 Z " fill="rgb(255,255,255)"/><path d=" M 234.545 1160 L 384.545 1160 L 384.545 1310 L 234.545 1310 L 234.545 1160 Z " fill="rgb(240,219,79)"/><path d=" M 372.269 1274.225 C 371.171 1267.381 366.708 1261.635 353.49 1256.274 C 348.899 1254.163 343.78 1252.652 342.255 1249.173 C 341.713 1247.148 341.641 1246.008 341.984 1244.781 C 342.968 1240.803 347.716 1239.563 351.48 1240.703 C 353.904 1241.516 356.199 1243.384 357.583 1246.364 C 364.056 1242.172 364.042 1242.201 368.562 1239.32 C 366.908 1236.754 366.024 1235.57 364.94 1234.473 C 361.047 1230.124 355.743 1227.885 347.259 1228.056 C 345.791 1228.242 344.308 1228.441 342.839 1228.627 C 338.605 1229.696 334.569 1231.92 332.202 1234.9 C 325.102 1242.956 327.126 1257.058 335.767 1262.861 C 344.279 1269.249 356.784 1270.704 358.381 1276.678 C 359.935 1283.993 353.006 1286.359 346.119 1285.518 C 341.043 1284.463 338.22 1281.882 335.168 1277.191 C 329.55 1280.442 329.55 1280.442 323.776 1283.764 C 325.144 1286.759 326.584 1288.113 328.88 1290.708 C 339.745 1301.73 366.936 1301.188 371.813 1284.506 C 372.012 1283.935 373.324 1280.114 372.269 1274.225 L 372.269 1274.225 Z  M 316.09 1228.94 L 302.06 1228.94 C 302.06 1241.06 302.003 1253.094 302.003 1265.214 C 302.003 1272.928 302.402 1280 301.147 1282.167 C 299.094 1286.43 293.776 1285.903 291.352 1285.076 C 288.885 1283.864 287.63 1282.139 286.176 1279.701 C 285.777 1279.002 285.477 1278.46 285.377 1278.417 C 281.57 1280.741 277.777 1283.08 273.97 1285.404 C 275.867 1289.297 278.661 1292.676 282.24 1294.872 C 287.587 1298.08 294.774 1299.064 302.288 1297.338 C 307.179 1295.912 311.399 1292.961 313.609 1288.47 C 316.803 1282.581 316.119 1275.452 316.09 1267.567 C 316.161 1254.705 316.09 1241.844 316.09 1228.94 Z " fill="rgb(50,51,48)"/></g></g></svg>