<?xml version="1.0" encoding="UTF-8" standalone="no"?><!-- Generator: Gravit.io --><svg xmlns="http://www.w3.org/2000/svg" xmlns:xlink="http://www.w3.org/1999/xlink" style="isolation:isolate" viewBox="825.283 1381 200 200" width="200pt" height="200pt"><g style="isolation:isolate"><g><rect x="825.283" y="1381" width="200" height="200" transform="matrix(1,0,0,1,0,0)" fill="none"/><path d=" M 899.543 1570.693 L 899.543 1554.493 L 901.083 1554.493 L 905.683 1565.253 L 905.683 1554.493 L 907.563 1554.493 L 907.563 1570.693 L 906.123 1570.693 L 901.463 1559.633 L 901.463 1570.693 L 899.543 1570.693 L 899.543 1570.693 Z  M 913.103 1570.853 L 913.103 1570.853 Q 911.263 1570.853 910.493 1569.763 L 910.493 1569.763 L 910.493 1569.763 Q 909.723 1568.673 909.723 1566.593 L 909.723 1566.593 L 909.723 1563.233 L 909.723 1563.233 Q 909.723 1561.153 910.493 1560.063 L 910.493 1560.063 L 910.493 1560.063 Q 911.263 1558.973 913.103 1558.973 L 913.103 1558.973 L 913.103 1558.973 Q 914.923 1558.973 915.693 1560.063 L 915.693 1560.063 L 915.693 1560.063 Q 916.463 1561.153 916.463 1563.233 L 916.463 1563.233 L 916.463 1566.593 L 916.463 1566.593 Q 916.463 1568.673 915.693 1569.763 L 915.693 1569.763 L 915.693 1569.763 Q 914.923 1570.853 913.103 1570.853 L 913.103 1570.853 L 913.103 1570.853 Z  M 913.103 1569.273 L 913.103 1569.273 Q 913.683 1569.273 913.943 1568.933 L 913.943 1568.933 L 913.943 1568.933 Q 914.203 1568.593 914.263 1568.093 L 914.263 1568.093 L 914.263 1568.093 Q 914.323 1567.593 914.323 1566.733 L 914.323 1566.733 L 914.323 1563.113 L 914.323 1563.113 Q 914.323 1562.253 914.263 1561.743 L 914.263 1561.743 L 914.263 1561.743 Q 914.203 1561.233 913.943 1560.893 L 913.943 1560.893 L 913.943 1560.893 Q 913.683 1560.553 913.103 1560.553 L 913.103 1560.553 L 913.103 1560.553 Q 912.523 1560.553 912.253 1560.893 L 912.253 1560.893 L 912.253 1560.893 Q 911.983 1561.233 911.923 1561.743 L 911.923 1561.743 L 911.923 1561.743 Q 911.863 1562.253 911.863 1563.113 L 911.863 1563.113 L 911.863 1566.733 L 911.863 1566.733 Q 911.863 1567.593 911.923 1568.093 L 911.923 1568.093 L 911.923 1568.093 Q 911.983 1568.593 912.253 1568.933 L 912.253 1568.933 L 912.253 1568.933 Q 912.523 1569.273 913.103 1569.273 L 913.103 1569.273 L 913.103 1569.273 Z  M 921.103 1570.853 L 921.103 1570.853 Q 919.603 1570.853 918.903 1569.763 L 918.903 1569.763 L 918.903 1569.763 Q 918.203 1568.673 918.203 1566.153 L 918.203 1566.153 L 918.203 1563.913 L 918.203 1563.913 Q 918.203 1561.613 918.813 1560.293 L 918.813 1560.293 L 918.813 1560.293 Q 919.423 1558.973 921.043 1558.973 L 921.043 1558.973 L 921.043 1558.973 Q 922.063 1558.973 922.963 1559.873 L 922.963 1559.873 L 922.963 1554.493 L 925.103 1554.493 L 925.103 1570.693 L 922.963 1570.693 L 922.963 1569.953 L 922.963 1569.953 Q 922.123 1570.853 921.103 1570.853 L 921.103 1570.853 L 921.103 1570.853 Z  M 921.643 1569.173 L 921.643 1569.173 Q 922.283 1569.173 922.963 1568.733 L 922.963 1568.733 L 922.963 1561.153 L 922.963 1561.153 Q 922.223 1560.653 921.603 1560.653 L 921.603 1560.653 L 921.603 1560.653 Q 920.343 1560.653 920.343 1563.073 L 920.343 1563.073 L 920.343 1566.333 L 920.343 1566.333 Q 920.343 1567.733 920.603 1568.453 L 920.603 1568.453 L 920.603 1568.453 Q 920.863 1569.173 921.643 1569.173 L 921.643 1569.173 L 921.643 1569.173 Z  M 930.463 1570.853 L 930.463 1570.853 Q 929.123 1570.853 928.383 1570.343 L 928.383 1570.343 L 928.383 1570.343 Q 927.643 1569.833 927.343 1568.833 L 927.343 1568.833 L 927.343 1568.833 Q 927.043 1567.833 927.043 1566.233 L 927.043 1566.233 L 927.043 1563.593 L 927.043 1563.593 Q 927.043 1561.193 927.793 1560.083 L 927.793 1560.083 L 927.793 1560.083 Q 928.543 1558.973 930.463 1558.973 L 930.463 1558.973 L 930.463 1558.973 Q 931.863 1558.973 932.573 1559.553 L 932.573 1559.553 L 932.573 1559.553 Q 933.283 1560.133 933.513 1561.183 L 933.513 1561.183 L 933.513 1561.183 Q 933.743 1562.233 933.743 1564.013 L 933.743 1564.013 L 933.743 1564.953 L 929.183 1564.953 L 929.183 1567.273 L 929.183 1567.273 Q 929.183 1568.333 929.493 1568.803 L 929.493 1568.803 L 929.493 1568.803 Q 929.803 1569.273 930.483 1569.273 L 930.483 1569.273 L 930.483 1569.273 Q 931.163 1569.273 931.403 1568.803 L 931.403 1568.803 L 931.403 1568.803 Q 931.643 1568.333 931.643 1567.373 L 931.643 1567.373 L 931.643 1566.673 L 933.723 1566.673 L 933.723 1567.113 L 933.723 1567.113 Q 933.723 1568.933 932.943 1569.893 L 932.943 1569.893 L 932.943 1569.893 Q 932.163 1570.853 930.463 1570.853 L 930.463 1570.853 L 930.463 1570.853 Z  M 929.183 1563.793 L 931.643 1563.793 L 931.643 1562.753 L 931.643 1562.753 Q 931.643 1561.573 931.413 1561.063 L 931.413 1561.063 L 931.413 1561.063 Q 931.183 1560.553 930.443 1560.553 L 930.443 1560.553 L 930.443 1560.553 Q 929.923 1560.553 929.653 1560.793 L 929.653 1560.793 L 929.653 1560.793 Q 929.383 1561.033 929.283 1561.583 L 929.283 1561.583 L 929.283 1561.583 Q 929.183 1562.133 929.183 1563.173 L 929.183 1563.173 L 929.183 1563.793 L 929.183 1563.793 Z  M 934.743 1571.073 L 934.743 1569.453 L 934.743 1569.453 Q 935.763 1569.453 936.253 1569.263 L 936.253 1569.263 L 936.253 1569.263 Q 936.743 1569.073 936.923 1568.563 L 936.923 1568.563 L 936.923 1568.563 Q 937.103 1568.053 937.103 1566.993 L 937.103 1566.993 L 937.103 1554.493 L 939.343 1554.493 L 939.343 1567.033 L 939.343 1567.033 Q 939.343 1568.493 939.043 1569.363 L 939.043 1569.363 L 939.043 1569.363 Q 938.743 1570.233 937.973 1570.653 L 937.973 1570.653 L 937.973 1570.653 Q 937.203 1571.073 935.823 1571.073 L 935.823 1571.073 L 934.743 1571.073 L 934.743 1571.073 Z  M 945.703 1570.873 L 945.703 1570.873 Q 943.663 1570.873 942.593 1569.613 L 942.593 1569.613 L 942.593 1569.613 Q 941.523 1568.353 941.403 1566.153 L 941.403 1566.153 L 943.403 1565.613 L 943.403 1565.613 Q 943.503 1567.173 944.013 1568.133 L 944.013 1568.133 L 944.013 1568.133 Q 944.523 1569.093 945.703 1569.093 L 945.703 1569.093 L 945.703 1569.093 Q 946.583 1569.093 947.033 1568.603 L 947.033 1568.603 L 947.033 1568.603 Q 947.483 1568.113 947.483 1567.193 L 947.483 1567.193 L 947.483 1567.193 Q 947.483 1566.193 947.063 1565.533 L 947.063 1565.533 L 947.063 1565.533 Q 946.643 1564.873 945.723 1564.073 L 945.723 1564.073 L 943.003 1561.673 L 943.003 1561.673 Q 942.183 1560.953 941.813 1560.123 L 941.813 1560.123 L 941.813 1560.123 Q 941.443 1559.293 941.443 1558.093 L 941.443 1558.093 L 941.443 1558.093 Q 941.443 1556.313 942.463 1555.333 L 942.463 1555.333 L 942.463 1555.333 Q 943.483 1554.353 945.243 1554.353 L 945.243 1554.353 L 945.243 1554.353 Q 947.163 1554.353 948.143 1555.373 L 948.143 1555.373 L 948.143 1555.373 Q 949.123 1556.393 949.323 1558.533 L 949.323 1558.533 L 947.403 1559.053 L 947.403 1559.053 Q 947.303 1557.633 946.853 1556.863 L 946.853 1556.863 L 946.853 1556.863 Q 946.403 1556.093 945.243 1556.093 L 945.243 1556.093 L 945.243 1556.093 Q 944.383 1556.093 943.923 1556.543 L 943.923 1556.543 L 943.923 1556.543 Q 943.463 1556.993 943.463 1557.873 L 943.463 1557.873 L 943.463 1557.873 Q 943.463 1558.593 943.703 1559.083 L 943.703 1559.083 L 943.703 1559.083 Q 943.943 1559.573 944.523 1560.073 L 944.523 1560.073 L 947.263 1562.473 L 947.263 1562.473 Q 948.323 1563.413 948.953 1564.513 L 948.953 1564.513 L 948.953 1564.513 Q 949.583 1565.613 949.583 1567.013 L 949.583 1567.013 L 949.583 1567.013 Q 949.583 1568.793 948.503 1569.833 L 948.503 1569.833 L 948.503 1569.833 Q 947.423 1570.873 945.703 1570.873 L 945.703 1570.873 L 945.703 1570.873 Z " fill="rgb(255,255,255)"/><g><path d=" M 1001.142 1460.167 C 1001.142 1501.585 967.56 1535.167 926.142 1535.167 C 887.925 1535.167 856.384 1506.587 851.735 1469.631 C 851.342 1466.489 851.142 1463.328 851.142 1460.167 C 851.142 1454.297 851.815 1448.582 853.089 1443.099 C 860.819 1409.904 890.593 1385.167 926.142 1385.167 C 961.604 1385.167 991.317 1409.778 999.127 1442.852 C 1000.168 1447.241 1000.802 1451.716 1001.035 1456.225 C 1001.108 1457.539 1001.142 1458.853 1001.142 1460.167 Z " fill="rgb(242,242,242)"/><path d=" M 922.393 1466.189 L 922.393 1446.687 L 905.506 1436.943 L 888.618 1446.687 L 888.618 1466.189 L 905.506 1475.94 L 922.393 1466.189 Z " fill="rgb(59,135,57)"/><path d=" M 988.896 1463.228 L 999.901 1469.584 L 988.896 1475.94 L 972.009 1466.189 L 972.009 1446.694 L 988.896 1436.943 L 999.127 1442.852 C 1000.168 1447.241 1000.802 1451.716 1001.035 1456.225 L 994.779 1459.84 L 994.779 1453.05 L 988.896 1449.655 L 983.014 1453.05 L 983.014 1459.84 L 988.896 1463.228 Z " fill="rgb(51,51,51)"/><path d=" M 992.178 1458.333 L 992.178 1454.544 L 988.903 1452.65 L 985.621 1454.544 L 985.621 1458.333 L 988.903 1460.227 L 992.178 1458.333 Z " fill="rgb(102,160,96)"/><path d=" M 880.641 1446.694 L 880.641 1472.405 L 869.376 1465.983 L 869.376 1452.797 L 863.754 1449.549 L 858.131 1452.797 L 858.131 1465.976 L 851.735 1469.624 C 851.342 1466.489 851.142 1463.328 851.142 1460.167 C 851.142 1454.297 851.815 1448.582 853.089 1443.099 L 863.754 1436.943 L 880.641 1446.694 Z " fill="rgb(51,51,51)"/><path d=" M 905.499 1436.936 L 922.387 1466.183 L 905.499 1475.934 L 888.618 1446.687 L 905.499 1436.936 Z " fill="rgb(109,167,93)"/><path d=" M 888.618 1466.189 L 894.414 1456.732 L 888.618 1446.687 L 888.618 1466.189 Z " fill="rgb(85,163,68)"/><path d=" M 916.757 1456.438 L 922.387 1446.687 L 905.506 1436.943 L 916.757 1456.438 Z " fill="rgb(99,157,87)"/><path d=" M 952.673 1414.34 L 952.673 1440.211 L 947.011 1436.943 L 930.123 1446.694 L 930.123 1466.196 L 947.011 1475.947 L 963.898 1466.196 L 963.898 1420.349 L 952.673 1414.34 Z  M 952.64 1459.686 L 947.011 1462.935 L 941.382 1459.686 L 941.382 1453.19 L 947.011 1449.942 L 952.64 1453.19 L 952.64 1459.686 Z " fill="rgb(51,51,51)"/><g><path d=" M 933.805 1490.26 C 933.805 1490.26 933.472 1487.412 930.424 1487.412 C 930.424 1487.412 925.288 1487.812 925.288 1489.5 C 925.288 1489.5 931.217 1491.187 933.472 1491.854 C 935.726 1492.514 937.713 1494.242 936.72 1497.29 C 935.726 1500.338 932.678 1500.671 927.969 1500.671 C 923.26 1500.671 922.2 1496.763 922.2 1495.236 L 924.854 1495.236 C 924.854 1495.236 924.521 1497.623 927.636 1498.017 C 927.636 1498.017 933.732 1498.637 934.132 1496.229 C 934.665 1493.048 924.054 1494.635 923.127 1491.521 C 922.34 1488.886 922.794 1485.425 928.096 1484.891 C 933.398 1484.357 936.313 1486.705 936.313 1490.193 L 933.805 1490.26 Z " fill="rgb(102,160,96)"/><path d=" M 908.187 1502.686 L 914.05 1506.067 C 916.998 1507.768 920.679 1505.64 920.679 1502.239 L 920.679 1485.391 L 918.292 1485.391 L 918.292 1501.572 C 918.292 1503.426 916.284 1504.593 914.67 1503.659 L 910.581 1501.298 L 910.581 1484.031 L 925.535 1475.4 L 940.488 1484.031 L 940.488 1501.298 L 925.535 1509.929 L 921.226 1507.441 L 918.412 1508.575 L 925.535 1512.683 L 942.876 1502.672 L 942.876 1482.65 L 925.535 1472.639 L 908.194 1482.65 L 908.187 1502.686 Z " fill="rgb(102,160,96)"/></g></g></g></g></svg>