<?xml version="1.0" encoding="UTF-8" standalone="no"?><!-- Generator: Gravit.io --><svg xmlns="http://www.w3.org/2000/svg" xmlns:xlink="http://www.w3.org/1999/xlink" style="isolation:isolate" viewBox="825.283 1148 200 200" width="200pt" height="200pt"><g style="isolation:isolate"><g><rect x="825.283" y="1148" width="200" height="200" transform="matrix(1,0,0,1,0,0)" fill="none"/><rect x="850.283" y="1160.167" width="150" height="150" transform="matrix(1,0,0,1,0,0)" fill="none"/><path d=" M 900.543 1337.693 L 900.543 1321.493 L 904.563 1321.493 L 904.563 1321.493 Q 906.663 1321.493 907.613 1322.633 L 907.613 1322.633 L 907.613 1322.633 Q 908.563 1323.773 908.563 1325.973 L 908.563 1325.973 L 908.563 1325.973 Q 908.563 1327.953 907.543 1329.053 L 907.543 1329.053 L 907.543 1329.053 Q 906.523 1330.153 904.583 1330.153 L 904.583 1330.153 L 902.803 1330.153 L 902.803 1337.693 L 900.543 1337.693 L 900.543 1337.693 Z  M 902.803 1328.533 L 903.843 1328.533 L 903.843 1328.533 Q 904.843 1328.533 905.393 1328.313 L 905.393 1328.313 L 905.393 1328.313 Q 905.943 1328.093 906.183 1327.553 L 906.183 1327.553 L 906.183 1327.553 Q 906.423 1327.013 906.423 1325.993 L 906.423 1325.993 L 906.423 1325.993 Q 906.423 1324.753 906.243 1324.173 L 906.243 1324.173 L 906.243 1324.173 Q 906.063 1323.593 905.533 1323.353 L 905.533 1323.353 L 905.533 1323.353 Q 905.003 1323.113 903.863 1323.113 L 903.863 1323.113 L 902.803 1323.113 L 902.803 1328.533 L 902.803 1328.533 Z  M 909.783 1340.593 L 909.783 1338.953 L 909.783 1338.953 Q 910.983 1338.953 911.433 1338.773 L 911.433 1338.773 L 911.433 1338.773 Q 911.883 1338.593 911.883 1338.093 L 911.883 1338.093 L 911.883 1338.093 Q 911.883 1337.853 911.443 1335.973 L 911.443 1335.973 L 909.123 1326.133 L 911.283 1326.133 L 912.843 1334.773 L 914.343 1326.133 L 916.503 1326.133 L 913.743 1338.333 L 913.743 1338.333 Q 913.463 1339.553 912.563 1340.073 L 912.563 1340.073 L 912.563 1340.073 Q 911.663 1340.593 910.043 1340.593 L 910.043 1340.593 L 909.783 1340.593 L 909.783 1340.593 Z  M 920.883 1337.853 L 920.883 1337.853 Q 918.383 1337.853 918.383 1335.093 L 918.383 1335.093 L 918.383 1327.553 L 917.163 1327.553 L 917.163 1326.133 L 918.383 1326.133 L 918.383 1322.753 L 920.523 1322.753 L 920.523 1326.133 L 922.383 1326.133 L 922.383 1327.553 L 920.523 1327.553 L 920.523 1334.953 L 920.523 1334.953 Q 920.523 1335.653 920.743 1335.933 L 920.743 1335.933 L 920.743 1335.933 Q 920.963 1336.213 921.583 1336.213 L 921.583 1336.213 L 921.583 1336.213 Q 921.983 1336.213 922.363 1336.153 L 922.363 1336.153 L 922.363 1337.733 L 922.363 1337.733 Q 921.563 1337.853 920.883 1337.853 L 920.883 1337.853 L 920.883 1337.853 Z  M 924.023 1337.693 L 924.023 1321.493 L 926.163 1321.493 L 926.163 1327.333 L 926.163 1327.333 Q 927.603 1325.973 929.063 1325.973 L 929.063 1325.973 L 929.063 1325.973 Q 930.003 1325.973 930.393 1326.653 L 930.393 1326.653 L 930.393 1326.653 Q 930.783 1327.333 930.783 1328.333 L 930.783 1328.333 L 930.783 1337.693 L 928.643 1337.693 L 928.643 1328.953 L 928.643 1328.953 Q 928.643 1328.293 928.443 1327.973 L 928.443 1327.973 L 928.443 1327.973 Q 928.243 1327.653 927.723 1327.653 L 927.723 1327.653 L 927.723 1327.653 Q 927.023 1327.653 926.163 1328.413 L 926.163 1328.413 L 926.163 1337.693 L 924.023 1337.693 L 924.023 1337.693 Z  M 936.043 1337.853 L 936.043 1337.853 Q 934.203 1337.853 933.433 1336.763 L 933.433 1336.763 L 933.433 1336.763 Q 932.663 1335.673 932.663 1333.593 L 932.663 1333.593 L 932.663 1330.233 L 932.663 1330.233 Q 932.663 1328.153 933.433 1327.063 L 933.433 1327.063 L 933.433 1327.063 Q 934.203 1325.973 936.043 1325.973 L 936.043 1325.973 L 936.043 1325.973 Q 937.863 1325.973 938.633 1327.063 L 938.633 1327.063 L 938.633 1327.063 Q 939.403 1328.153 939.403 1330.233 L 939.403 1330.233 L 939.403 1333.593 L 939.403 1333.593 Q 939.403 1335.673 938.633 1336.763 L 938.633 1336.763 L 938.633 1336.763 Q 937.863 1337.853 936.043 1337.853 L 936.043 1337.853 L 936.043 1337.853 Z  M 936.043 1336.273 L 936.043 1336.273 Q 936.623 1336.273 936.883 1335.933 L 936.883 1335.933 L 936.883 1335.933 Q 937.143 1335.593 937.203 1335.093 L 937.203 1335.093 L 937.203 1335.093 Q 937.263 1334.593 937.263 1333.733 L 937.263 1333.733 L 937.263 1330.113 L 937.263 1330.113 Q 937.263 1329.253 937.203 1328.743 L 937.203 1328.743 L 937.203 1328.743 Q 937.143 1328.233 936.883 1327.893 L 936.883 1327.893 L 936.883 1327.893 Q 936.623 1327.553 936.043 1327.553 L 936.043 1327.553 L 936.043 1327.553 Q 935.463 1327.553 935.193 1327.893 L 935.193 1327.893 L 935.193 1327.893 Q 934.923 1328.233 934.863 1328.743 L 934.863 1328.743 L 934.863 1328.743 Q 934.803 1329.253 934.803 1330.113 L 934.803 1330.113 L 934.803 1333.733 L 934.803 1333.733 Q 934.803 1334.593 934.863 1335.093 L 934.863 1335.093 L 934.863 1335.093 Q 934.923 1335.593 935.193 1335.933 L 935.193 1335.933 L 935.193 1335.933 Q 935.463 1336.273 936.043 1336.273 L 936.043 1336.273 L 936.043 1336.273 Z  M 941.363 1337.693 L 941.363 1326.133 L 943.503 1326.133 L 943.503 1327.273 L 943.503 1327.273 Q 944.883 1325.973 946.323 1325.973 L 946.323 1325.973 L 946.323 1325.973 Q 947.263 1325.973 947.663 1326.653 L 947.663 1326.653 L 947.663 1326.653 Q 948.063 1327.333 948.063 1328.333 L 948.063 1328.333 L 948.063 1337.693 L 945.923 1337.693 L 945.923 1328.953 L 945.923 1328.953 Q 945.923 1328.293 945.723 1327.973 L 945.723 1327.973 L 945.723 1327.973 Q 945.523 1327.653 945.003 1327.653 L 945.003 1327.653 L 945.003 1327.653 Q 944.363 1327.653 943.503 1328.373 L 943.503 1328.373 L 943.503 1337.693 L 941.363 1337.693 L 941.363 1337.693 Z " fill="rgb(255,255,255)"/><g><linearGradient id="_lgradient_4" x1="-0.03598021576803795" y1="0.036835364118946154" x2="0.7059363090232702" y2="0.6813995768060424" gradientTransform="matrix(91.628,0,0,92.749,863.36,1159.979)" gradientUnits="userSpaceOnUse"><stop offset="0%" stop-opacity="1" style="stop-color:rgb(92,160,213)"/><stop offset="100%" stop-opacity="1" style="stop-color:rgb(49,106,153)"/></linearGradient><path d=" M 924.449 1160.008 C 919.356 1160.008 914.427 1160.482 910.136 1161.284 C 897.418 1163.507 895.185 1168.126 895.185 1176.872 L 895.185 1188.325 L 925.086 1188.325 L 925.086 1192.142 L 884.052 1192.142 C 875.46 1192.142 867.835 1197.39 865.448 1207.247 C 862.742 1218.7 862.587 1225.696 865.448 1237.622 C 867.516 1246.533 872.609 1252.728 881.355 1252.728 L 891.696 1252.728 L 891.696 1239.053 C 891.696 1229.195 900.288 1220.449 910.3 1220.449 L 940.037 1220.449 C 948.31 1220.449 954.988 1213.606 954.988 1205.179 L 954.988 1176.708 C 954.988 1168.6 948.146 1162.55 940.037 1161.12 C 934.78 1160.327 929.532 1159.854 924.449 1160.008 Z  M 908.222 1169.073 C 911.247 1169.073 913.789 1171.615 913.789 1174.795 C 913.789 1177.974 911.247 1180.516 908.222 1180.516 C 905.197 1180.516 902.656 1177.974 902.656 1174.795 C 902.656 1171.615 905.043 1169.073 908.222 1169.073 Z " fill="url(#_lgradient_4)"/><linearGradient id="_lgradient_5" x1="0.6493553088947531" y1="0.7151175729665897" x2="0.38691810795454157" y2="0.34018907813485383" gradientTransform="matrix(92.022,0,0,93.465,895.185,1191.813)" gradientUnits="userSpaceOnUse"><stop offset="0%" stop-opacity="1" style="stop-color:rgb(255,212,62)"/><stop offset="100%" stop-opacity="1" style="stop-color:rgb(255,233,117)"/></linearGradient><path d=" M 958.641 1191.813 L 958.641 1205.015 C 958.641 1215.356 949.895 1223.938 939.873 1223.938 L 910.136 1223.938 C 902.027 1223.938 895.185 1230.935 895.185 1239.207 L 895.185 1267.678 C 895.185 1275.787 902.182 1280.561 910.136 1282.948 C 919.52 1285.809 928.585 1286.292 940.037 1282.948 C 947.508 1280.725 954.988 1276.424 954.988 1267.678 L 954.988 1256.226 L 925.077 1256.226 L 925.077 1252.409 L 969.929 1252.409 C 978.52 1252.409 981.855 1246.368 984.88 1237.303 C 988.059 1227.919 987.904 1219.018 984.88 1206.928 C 982.811 1198.337 978.675 1191.823 969.929 1191.823 L 958.641 1191.813 Z  M 941.777 1263.861 C 944.802 1263.861 947.343 1266.403 947.343 1269.582 C 947.343 1272.762 944.802 1275.303 941.777 1275.303 C 938.752 1275.303 936.21 1272.762 936.21 1269.582 C 936.21 1266.403 938.761 1263.861 941.777 1263.861 Z " fill="url(#_lgradient_5)"/><g opacity="0.444"><radialGradient id="_rgradient_0" fx="0.49964558803953474" fy="0.41602461271716784" cx="0.49964558803953474" cy="0.41602461271716784" r="1" gradientTransform="matrix(80.156,0,0,15.579,885.318,1294.4)" gradientUnits="userSpaceOnUse"><stop offset="0%" stop-opacity="0.498" style="stop-color:rgb(184,184,184)"/><stop offset="100%" stop-opacity="0" style="stop-color:rgb(127,128,128)"/></radialGradient><path d=" M 965.474 1302.19 C 965.474 1306.481 947.508 1309.979 925.396 1309.979 C 903.284 1309.979 885.318 1306.481 885.318 1302.19 C 885.318 1297.899 903.284 1294.4 925.396 1294.4 C 947.508 1294.4 965.474 1297.889 965.474 1302.19 L 965.474 1302.19 Z " fill="url(#_rgradient_0)"/></g></g></g></g></svg>