<?xml version="1.0" encoding="UTF-8" standalone="no"?><!-- Generator: Gravit.io --><svg xmlns="http://www.w3.org/2000/svg" xmlns:xlink="http://www.w3.org/1999/xlink" style="isolation:isolate" viewBox="414.717 1381 200 200" width="200pt" height="200pt"><g style="isolation:isolate"><g><rect x="414.717" y="1381" width="200" height="200" transform="matrix(1,0,0,1,0,0)" fill="none"/><path d=" M 493.977 1570.693 L 493.977 1554.493 L 497.237 1554.493 L 497.237 1554.493 Q 499.697 1554.493 500.847 1555.503 L 500.847 1555.503 L 500.847 1555.503 Q 501.997 1556.513 501.997 1558.793 L 501.997 1558.793 L 501.997 1558.793 Q 501.997 1561.913 499.997 1562.573 L 499.997 1562.573 L 502.297 1570.693 L 500.117 1570.693 L 497.997 1563.093 L 496.237 1563.093 L 496.237 1570.693 L 493.977 1570.693 L 493.977 1570.693 Z  M 496.237 1561.473 L 497.097 1561.473 L 497.097 1561.473 Q 498.557 1561.473 499.187 1560.893 L 499.187 1560.893 L 499.187 1560.893 Q 499.817 1560.313 499.817 1558.793 L 499.817 1558.793 L 499.817 1558.793 Q 499.817 1557.793 499.597 1557.223 L 499.597 1557.223 L 499.597 1557.223 Q 499.377 1556.653 498.817 1556.383 L 498.817 1556.383 L 498.817 1556.383 Q 498.257 1556.113 497.237 1556.113 L 497.237 1556.113 L 496.237 1556.113 L 496.237 1561.473 L 496.237 1561.473 Z  M 507.377 1570.853 L 507.377 1570.853 Q 506.037 1570.853 505.297 1570.343 L 505.297 1570.343 L 505.297 1570.343 Q 504.557 1569.833 504.257 1568.833 L 504.257 1568.833 L 504.257 1568.833 Q 503.957 1567.833 503.957 1566.233 L 503.957 1566.233 L 503.957 1563.593 L 503.957 1563.593 Q 503.957 1561.193 504.707 1560.083 L 504.707 1560.083 L 504.707 1560.083 Q 505.457 1558.973 507.377 1558.973 L 507.377 1558.973 L 507.377 1558.973 Q 508.777 1558.973 509.487 1559.553 L 509.487 1559.553 L 509.487 1559.553 Q 510.197 1560.133 510.427 1561.183 L 510.427 1561.183 L 510.427 1561.183 Q 510.657 1562.233 510.657 1564.013 L 510.657 1564.013 L 510.657 1564.953 L 506.097 1564.953 L 506.097 1567.273 L 506.097 1567.273 Q 506.097 1568.333 506.407 1568.803 L 506.407 1568.803 L 506.407 1568.803 Q 506.717 1569.273 507.397 1569.273 L 507.397 1569.273 L 507.397 1569.273 Q 508.077 1569.273 508.317 1568.803 L 508.317 1568.803 L 508.317 1568.803 Q 508.557 1568.333 508.557 1567.373 L 508.557 1567.373 L 508.557 1566.673 L 510.637 1566.673 L 510.637 1567.113 L 510.637 1567.113 Q 510.637 1568.933 509.857 1569.893 L 509.857 1569.893 L 509.857 1569.893 Q 509.077 1570.853 507.377 1570.853 L 507.377 1570.853 L 507.377 1570.853 Z  M 506.097 1563.793 L 508.557 1563.793 L 508.557 1562.753 L 508.557 1562.753 Q 508.557 1561.573 508.327 1561.063 L 508.327 1561.063 L 508.327 1561.063 Q 508.097 1560.553 507.357 1560.553 L 507.357 1560.553 L 507.357 1560.553 Q 506.837 1560.553 506.567 1560.793 L 506.567 1560.793 L 506.567 1560.793 Q 506.297 1561.033 506.197 1561.583 L 506.197 1561.583 L 506.197 1561.583 Q 506.097 1562.133 506.097 1563.173 L 506.097 1563.173 L 506.097 1563.793 L 506.097 1563.793 Z  M 514.677 1570.853 L 514.677 1570.853 Q 514.017 1570.853 513.487 1570.473 L 513.487 1570.473 L 513.487 1570.473 Q 512.957 1570.093 512.657 1569.473 L 512.657 1569.473 L 512.657 1569.473 Q 512.357 1568.853 512.357 1568.173 L 512.357 1568.173 L 512.357 1568.173 Q 512.357 1566.813 512.937 1565.963 L 512.937 1565.963 L 512.937 1565.963 Q 513.517 1565.113 514.417 1564.613 L 514.417 1564.613 L 514.417 1564.613 Q 515.317 1564.113 516.917 1563.473 L 516.917 1563.473 L 516.917 1562.653 L 516.917 1562.653 Q 516.917 1561.513 516.687 1561.043 L 516.687 1561.043 L 516.687 1561.043 Q 516.457 1560.573 515.757 1560.573 L 515.757 1560.573 L 515.757 1560.573 Q 514.537 1560.573 514.537 1562.213 L 514.537 1562.213 L 514.537 1562.793 L 512.417 1562.713 L 512.417 1562.713 Q 512.457 1560.793 513.297 1559.883 L 513.297 1559.883 L 513.297 1559.883 Q 514.137 1558.973 515.897 1558.973 L 515.897 1558.973 L 515.897 1558.973 Q 517.557 1558.973 518.307 1559.883 L 518.307 1559.883 L 518.307 1559.883 Q 519.057 1560.793 519.057 1562.633 L 519.057 1562.633 L 519.057 1567.913 L 519.057 1567.913 Q 519.057 1569.213 519.257 1570.693 L 519.257 1570.693 L 517.297 1570.693 L 517.297 1570.693 Q 517.077 1569.553 517.017 1568.993 L 517.017 1568.993 L 517.017 1568.993 Q 516.777 1569.773 516.187 1570.313 L 516.187 1570.313 L 516.187 1570.313 Q 515.597 1570.853 514.677 1570.853 L 514.677 1570.853 L 514.677 1570.853 Z  M 515.517 1569.013 L 515.517 1569.013 Q 515.937 1569.013 516.337 1568.683 L 516.337 1568.683 L 516.337 1568.683 Q 516.737 1568.353 516.917 1568.053 L 516.917 1568.053 L 516.917 1564.773 L 516.917 1564.773 Q 516.057 1565.253 515.587 1565.603 L 515.587 1565.603 L 515.587 1565.603 Q 515.117 1565.953 514.807 1566.413 L 514.807 1566.413 L 514.807 1566.413 Q 514.497 1566.873 514.497 1567.513 L 514.497 1567.513 L 514.497 1567.513 Q 514.497 1568.233 514.757 1568.623 L 514.757 1568.623 L 514.757 1568.623 Q 515.017 1569.013 515.517 1569.013 L 515.517 1569.013 L 515.517 1569.013 Z  M 524.277 1570.853 L 524.277 1570.853 Q 522.917 1570.853 522.177 1570.303 L 522.177 1570.303 L 522.177 1570.303 Q 521.437 1569.753 521.167 1568.763 L 521.167 1568.763 L 521.167 1568.763 Q 520.897 1567.773 520.897 1566.253 L 520.897 1566.253 L 520.897 1563.593 L 520.897 1563.593 Q 520.897 1562.033 521.167 1561.033 L 521.167 1561.033 L 521.167 1561.033 Q 521.437 1560.033 522.177 1559.503 L 522.177 1559.503 L 522.177 1559.503 Q 522.917 1558.973 524.277 1558.973 L 524.277 1558.973 L 524.277 1558.973 Q 525.517 1558.973 526.207 1559.373 L 526.207 1559.373 L 526.207 1559.373 Q 526.897 1559.773 527.167 1560.563 L 527.167 1560.563 L 527.167 1560.563 Q 527.437 1561.353 527.437 1562.613 L 527.437 1562.613 L 527.437 1563.293 L 525.497 1563.293 L 525.497 1562.593 L 525.497 1562.593 Q 525.497 1561.453 525.247 1561.003 L 525.247 1561.003 L 525.247 1561.003 Q 524.997 1560.553 524.297 1560.553 L 524.297 1560.553 L 524.297 1560.553 Q 523.757 1560.553 523.497 1560.793 L 523.497 1560.793 L 523.497 1560.793 Q 523.237 1561.033 523.137 1561.573 L 523.137 1561.573 L 523.137 1561.573 Q 523.037 1562.113 523.037 1563.153 L 523.037 1563.153 L 523.037 1566.793 L 523.037 1566.793 Q 523.037 1567.793 523.157 1568.323 L 523.157 1568.323 L 523.157 1568.323 Q 523.277 1568.853 523.547 1569.063 L 523.547 1569.063 L 523.547 1569.063 Q 523.817 1569.273 524.317 1569.273 L 524.317 1569.273 L 524.317 1569.273 Q 525.057 1569.273 525.277 1568.783 L 525.277 1568.783 L 525.277 1568.783 Q 525.497 1568.293 525.497 1567.273 L 525.497 1567.273 L 525.497 1566.333 L 527.437 1566.333 L 527.437 1567.133 L 527.437 1567.133 Q 527.437 1569.013 526.747 1569.933 L 526.747 1569.933 L 526.747 1569.933 Q 526.057 1570.853 524.277 1570.853 L 524.277 1570.853 L 524.277 1570.853 Z  M 532.417 1570.853 L 532.417 1570.853 Q 529.917 1570.853 529.917 1568.093 L 529.917 1568.093 L 529.917 1560.553 L 528.697 1560.553 L 528.697 1559.133 L 529.917 1559.133 L 529.917 1555.753 L 532.057 1555.753 L 532.057 1559.133 L 533.917 1559.133 L 533.917 1560.553 L 532.057 1560.553 L 532.057 1567.953 L 532.057 1567.953 Q 532.057 1568.653 532.277 1568.933 L 532.277 1568.933 L 532.277 1568.933 Q 532.497 1569.213 533.117 1569.213 L 533.117 1569.213 L 533.117 1569.213 Q 533.517 1569.213 533.897 1569.153 L 533.897 1569.153 L 533.897 1570.733 L 533.897 1570.733 Q 533.097 1570.853 532.417 1570.853 L 532.417 1570.853 L 532.417 1570.853 Z " fill="rgb(255,255,255)"/><g><path d=" M 589.608 1468.391 C 589.608 1458.454 577.164 1449.037 558.086 1443.198 C 562.488 1423.752 560.532 1408.281 551.91 1403.328 C 549.922 1402.166 547.599 1401.616 545.061 1401.616 L 545.061 1408.434 C 546.467 1408.434 547.599 1408.709 548.546 1409.229 C 552.705 1411.614 554.508 1420.695 553.102 1432.374 C 552.766 1435.248 552.215 1438.275 551.543 1441.363 C 545.55 1439.896 539.007 1438.764 532.128 1438.031 C 528 1432.374 523.72 1427.238 519.409 1422.743 C 529.376 1413.479 538.732 1408.404 545.091 1408.404 L 545.091 1401.585 C 536.683 1401.585 525.676 1407.578 514.547 1417.973 C 503.418 1407.639 492.411 1401.708 484.003 1401.708 L 484.003 1408.526 C 490.332 1408.526 499.718 1413.571 509.686 1422.774 C 505.405 1427.268 501.125 1432.374 497.058 1438.031 C 490.148 1438.764 483.605 1439.896 477.613 1441.394 C 476.91 1438.336 476.39 1435.37 476.023 1432.527 C 474.586 1420.847 476.359 1411.767 480.487 1409.351 C 481.404 1408.801 482.597 1408.556 484.003 1408.556 L 484.003 1401.738 C 481.435 1401.738 479.111 1402.289 477.093 1403.45 C 468.502 1408.404 466.575 1423.844 471.009 1443.228 C 451.991 1449.099 439.608 1458.485 439.608 1468.391 C 439.608 1478.328 452.052 1487.745 471.131 1493.585 C 466.728 1513.031 468.685 1528.501 477.307 1533.454 C 479.294 1534.616 481.618 1535.167 484.186 1535.167 C 492.594 1535.167 503.601 1529.174 514.731 1518.779 C 525.86 1529.113 536.867 1535.044 545.275 1535.044 C 547.843 1535.044 550.167 1534.494 552.185 1533.332 C 560.776 1528.379 562.703 1512.939 558.269 1493.554 C 577.226 1487.715 589.608 1478.298 589.608 1468.391 L 589.608 1468.391 Z  M 549.8 1447.998 C 548.669 1451.942 547.262 1456.008 545.672 1460.075 C 544.419 1457.629 543.104 1455.183 541.667 1452.737 C 540.261 1450.291 538.762 1447.906 537.264 1445.582 C 541.606 1446.225 545.795 1447.019 549.8 1447.998 Z  M 535.797 1480.56 C 533.412 1484.688 530.966 1488.601 528.428 1492.24 C 523.872 1492.637 519.256 1492.851 514.608 1492.851 C 509.992 1492.851 505.375 1492.637 500.85 1492.27 C 498.312 1488.632 495.835 1484.749 493.451 1480.652 C 491.127 1476.646 489.017 1472.58 487.091 1468.483 C 488.987 1464.386 491.127 1460.289 493.42 1456.284 C 495.805 1452.156 498.251 1448.242 500.789 1444.604 C 505.344 1444.207 509.961 1443.993 514.608 1443.993 C 519.225 1443.993 523.842 1444.207 528.367 1444.574 C 530.905 1448.212 533.381 1452.095 535.766 1456.192 C 538.09 1460.197 540.199 1464.264 542.126 1468.361 C 540.199 1472.458 538.09 1476.555 535.797 1480.56 Z  M 545.672 1476.585 C 547.323 1480.682 548.73 1484.779 549.892 1488.754 C 545.886 1489.733 541.667 1490.558 537.295 1491.2 C 538.793 1488.846 540.291 1486.43 541.698 1483.954 C 543.104 1481.508 544.419 1479.031 545.672 1476.585 Z  M 514.669 1509.209 C 511.826 1506.273 508.983 1503.002 506.17 1499.425 C 508.921 1499.547 511.734 1499.639 514.578 1499.639 C 517.452 1499.639 520.295 1499.578 523.078 1499.425 C 520.326 1503.002 517.482 1506.273 514.669 1509.209 Z  M 491.922 1491.2 C 487.58 1490.558 483.391 1489.763 479.386 1488.785 C 480.517 1484.841 481.924 1480.774 483.514 1476.708 C 484.767 1479.154 486.082 1481.6 487.519 1484.046 C 488.956 1486.492 490.424 1488.876 491.922 1491.2 Z  M 514.517 1427.574 C 517.36 1430.509 520.204 1433.781 523.016 1437.358 C 520.265 1437.236 517.452 1437.144 514.608 1437.144 C 511.734 1437.144 508.891 1437.205 506.109 1437.358 C 508.86 1433.781 511.704 1430.509 514.517 1427.574 Z  M 491.891 1445.582 C 490.393 1447.937 488.895 1450.352 487.488 1452.829 C 486.082 1455.275 484.767 1457.721 483.514 1460.167 C 481.863 1456.07 480.456 1451.973 479.294 1447.998 C 483.3 1447.05 487.519 1446.225 491.891 1445.582 L 491.891 1445.582 Z  M 464.221 1483.862 C 453.398 1479.245 446.396 1473.192 446.396 1468.391 C 446.396 1463.591 453.398 1457.507 464.221 1452.92 C 466.85 1451.789 469.725 1450.78 472.69 1449.832 C 474.433 1455.825 476.726 1462.062 479.57 1468.452 C 476.757 1474.812 474.494 1481.019 472.782 1486.981 C 469.755 1486.033 466.881 1484.993 464.221 1483.862 Z  M 480.67 1527.554 C 476.512 1525.169 474.708 1516.088 476.115 1504.408 C 476.451 1501.534 477.001 1498.507 477.674 1495.419 C 483.667 1496.887 490.21 1498.018 497.089 1498.752 C 501.217 1504.408 505.497 1509.545 509.808 1514.039 C 499.841 1523.304 490.485 1528.379 484.125 1528.379 C 482.749 1528.348 481.588 1528.073 480.67 1527.554 L 480.67 1527.554 Z  M 553.194 1504.256 C 554.631 1515.935 552.857 1525.016 548.73 1527.431 C 547.813 1527.982 546.62 1528.226 545.214 1528.226 C 538.885 1528.226 529.498 1523.181 519.531 1513.978 C 523.811 1509.484 528.092 1504.378 532.158 1498.721 C 539.068 1497.988 545.611 1496.856 551.604 1495.358 C 552.307 1498.446 552.857 1501.412 553.194 1504.256 L 553.194 1504.256 Z  M 564.965 1483.862 C 562.336 1484.993 559.462 1486.002 556.496 1486.95 C 554.753 1480.958 552.46 1474.72 549.616 1468.33 C 552.429 1461.971 554.692 1455.764 556.404 1449.802 C 559.431 1450.75 562.305 1451.789 564.996 1452.92 C 575.819 1457.537 582.821 1463.591 582.821 1468.391 C 582.79 1473.192 575.789 1479.276 564.965 1483.862 L 564.965 1483.862 Z " fill="rgb(97,218,251)"/><circle vector-effect="non-scaling-stroke" cx="514.5777585269739" cy="1468.3912895773854" r="13.972686506318809" fill="rgb(97,218,251)"/></g></g></g></svg>