<?xml version="1.0" encoding="UTF-8" standalone="no"?><!-- Generator: Gravit.io --><svg xmlns="http://www.w3.org/2000/svg" xmlns:xlink="http://www.w3.org/1999/xlink" style="isolation:isolate" viewBox="620 1381 200 200" width="200pt" height="200pt"><g style="isolation:isolate"><g><rect x="620" y="1381" width="200" height="200" transform="matrix(1,0,0,1,0,0)" fill="none"/><path d=" M 683.36 1570.693 L 680.72 1554.493 L 682.6 1554.493 L 684.34 1566.133 L 686.52 1554.553 L 688.12 1554.553 L 690.32 1566.193 L 692.02 1554.493 L 693.86 1554.493 L 691.26 1570.693 L 689.62 1570.693 L 687.36 1558.693 L 685.08 1570.693 L 683.36 1570.693 L 683.36 1570.693 Z  M 698.64 1570.853 L 698.64 1570.853 Q 696.8 1570.853 696.03 1569.763 L 696.03 1569.763 L 696.03 1569.763 Q 695.26 1568.673 695.26 1566.593 L 695.26 1566.593 L 695.26 1563.233 L 695.26 1563.233 Q 695.26 1561.153 696.03 1560.063 L 696.03 1560.063 L 696.03 1560.063 Q 696.8 1558.973 698.64 1558.973 L 698.64 1558.973 L 698.64 1558.973 Q 700.46 1558.973 701.23 1560.063 L 701.23 1560.063 L 701.23 1560.063 Q 702 1561.153 702 1563.233 L 702 1563.233 L 702 1566.593 L 702 1566.593 Q 702 1568.673 701.23 1569.763 L 701.23 1569.763 L 701.23 1569.763 Q 700.46 1570.853 698.64 1570.853 L 698.64 1570.853 L 698.64 1570.853 Z  M 698.64 1569.273 L 698.64 1569.273 Q 699.22 1569.273 699.48 1568.933 L 699.48 1568.933 L 699.48 1568.933 Q 699.74 1568.593 699.8 1568.093 L 699.8 1568.093 L 699.8 1568.093 Q 699.86 1567.593 699.86 1566.733 L 699.86 1566.733 L 699.86 1563.113 L 699.86 1563.113 Q 699.86 1562.253 699.8 1561.743 L 699.8 1561.743 L 699.8 1561.743 Q 699.74 1561.233 699.48 1560.893 L 699.48 1560.893 L 699.48 1560.893 Q 699.22 1560.553 698.64 1560.553 L 698.64 1560.553 L 698.64 1560.553 Q 698.06 1560.553 697.79 1560.893 L 697.79 1560.893 L 697.79 1560.893 Q 697.52 1561.233 697.46 1561.743 L 697.46 1561.743 L 697.46 1561.743 Q 697.4 1562.253 697.4 1563.113 L 697.4 1563.113 L 697.4 1566.733 L 697.4 1566.733 Q 697.4 1567.593 697.46 1568.093 L 697.46 1568.093 L 697.46 1568.093 Q 697.52 1568.593 697.79 1568.933 L 697.79 1568.933 L 697.79 1568.933 Q 698.06 1569.273 698.64 1569.273 L 698.64 1569.273 L 698.64 1569.273 Z  M 704.02 1570.693 L 704.02 1559.133 L 706.16 1559.133 L 706.16 1560.773 L 706.16 1560.773 Q 706.76 1559.793 707.39 1559.393 L 707.39 1559.393 L 707.39 1559.393 Q 708.02 1558.993 708.72 1558.993 L 708.72 1558.993 L 708.72 1558.993 Q 708.9 1558.993 709.06 1559.013 L 709.06 1559.013 L 709.06 1561.373 L 709.06 1561.373 Q 708.42 1561.133 707.88 1561.133 L 707.88 1561.133 L 707.88 1561.133 Q 707.36 1561.133 706.95 1561.383 L 706.95 1561.383 L 706.95 1561.383 Q 706.54 1561.633 706.16 1562.253 L 706.16 1562.253 L 706.16 1570.693 L 704.02 1570.693 L 704.02 1570.693 Z  M 713.06 1570.853 L 713.06 1570.853 Q 711.56 1570.853 710.86 1569.763 L 710.86 1569.763 L 710.86 1569.763 Q 710.16 1568.673 710.16 1566.153 L 710.16 1566.153 L 710.16 1563.913 L 710.16 1563.913 Q 710.16 1561.613 710.77 1560.293 L 710.77 1560.293 L 710.77 1560.293 Q 711.38 1558.973 713 1558.973 L 713 1558.973 L 713 1558.973 Q 714.02 1558.973 714.92 1559.873 L 714.92 1559.873 L 714.92 1554.493 L 717.06 1554.493 L 717.06 1570.693 L 714.92 1570.693 L 714.92 1569.953 L 714.92 1569.953 Q 714.08 1570.853 713.06 1570.853 L 713.06 1570.853 L 713.06 1570.853 Z  M 713.6 1569.173 L 713.6 1569.173 Q 714.24 1569.173 714.92 1568.733 L 714.92 1568.733 L 714.92 1561.153 L 714.92 1561.153 Q 714.18 1560.653 713.56 1560.653 L 713.56 1560.653 L 713.56 1560.653 Q 712.3 1560.653 712.3 1563.073 L 712.3 1563.073 L 712.3 1566.333 L 712.3 1566.333 Q 712.3 1567.733 712.56 1568.453 L 712.56 1568.453 L 712.56 1568.453 Q 712.82 1569.173 713.6 1569.173 L 713.6 1569.173 L 713.6 1569.173 Z  M 719.4 1570.693 L 719.4 1554.493 L 723.42 1554.493 L 723.42 1554.493 Q 725.52 1554.493 726.47 1555.633 L 726.47 1555.633 L 726.47 1555.633 Q 727.42 1556.773 727.42 1558.973 L 727.42 1558.973 L 727.42 1558.973 Q 727.42 1560.953 726.4 1562.053 L 726.4 1562.053 L 726.4 1562.053 Q 725.38 1563.153 723.44 1563.153 L 723.44 1563.153 L 721.66 1563.153 L 721.66 1570.693 L 719.4 1570.693 L 719.4 1570.693 Z  M 721.66 1561.533 L 722.7 1561.533 L 722.7 1561.533 Q 723.7 1561.533 724.25 1561.313 L 724.25 1561.313 L 724.25 1561.313 Q 724.8 1561.093 725.04 1560.553 L 725.04 1560.553 L 725.04 1560.553 Q 725.28 1560.013 725.28 1558.993 L 725.28 1558.993 L 725.28 1558.993 Q 725.28 1557.753 725.1 1557.173 L 725.1 1557.173 L 725.1 1557.173 Q 724.92 1556.593 724.39 1556.353 L 724.39 1556.353 L 724.39 1556.353 Q 723.86 1556.113 722.72 1556.113 L 722.72 1556.113 L 721.66 1556.113 L 721.66 1561.533 L 721.66 1561.533 Z  M 728.88 1570.693 L 728.88 1559.133 L 731.02 1559.133 L 731.02 1560.773 L 731.02 1560.773 Q 731.62 1559.793 732.25 1559.393 L 732.25 1559.393 L 732.25 1559.393 Q 732.88 1558.993 733.58 1558.993 L 733.58 1558.993 L 733.58 1558.993 Q 733.76 1558.993 733.92 1559.013 L 733.92 1559.013 L 733.92 1561.373 L 733.92 1561.373 Q 733.28 1561.133 732.74 1561.133 L 732.74 1561.133 L 732.74 1561.133 Q 732.22 1561.133 731.81 1561.383 L 731.81 1561.383 L 731.81 1561.383 Q 731.4 1561.633 731.02 1562.253 L 731.02 1562.253 L 731.02 1570.693 L 728.88 1570.693 L 728.88 1570.693 Z  M 738.44 1570.853 L 738.44 1570.853 Q 737.1 1570.853 736.36 1570.343 L 736.36 1570.343 L 736.36 1570.343 Q 735.62 1569.833 735.32 1568.833 L 735.32 1568.833 L 735.32 1568.833 Q 735.02 1567.833 735.02 1566.233 L 735.02 1566.233 L 735.02 1563.593 L 735.02 1563.593 Q 735.02 1561.193 735.77 1560.083 L 735.77 1560.083 L 735.77 1560.083 Q 736.52 1558.973 738.44 1558.973 L 738.44 1558.973 L 738.44 1558.973 Q 739.84 1558.973 740.55 1559.553 L 740.55 1559.553 L 740.55 1559.553 Q 741.26 1560.133 741.49 1561.183 L 741.49 1561.183 L 741.49 1561.183 Q 741.72 1562.233 741.72 1564.013 L 741.72 1564.013 L 741.72 1564.953 L 737.16 1564.953 L 737.16 1567.273 L 737.16 1567.273 Q 737.16 1568.333 737.47 1568.803 L 737.47 1568.803 L 737.47 1568.803 Q 737.78 1569.273 738.46 1569.273 L 738.46 1569.273 L 738.46 1569.273 Q 739.14 1569.273 739.38 1568.803 L 739.38 1568.803 L 739.38 1568.803 Q 739.62 1568.333 739.62 1567.373 L 739.62 1567.373 L 739.62 1566.673 L 741.7 1566.673 L 741.7 1567.113 L 741.7 1567.113 Q 741.7 1568.933 740.92 1569.893 L 740.92 1569.893 L 740.92 1569.893 Q 740.14 1570.853 738.44 1570.853 L 738.44 1570.853 L 738.44 1570.853 Z  M 737.16 1563.793 L 739.62 1563.793 L 739.62 1562.753 L 739.62 1562.753 Q 739.62 1561.573 739.39 1561.063 L 739.39 1561.063 L 739.39 1561.063 Q 739.16 1560.553 738.42 1560.553 L 738.42 1560.553 L 738.42 1560.553 Q 737.9 1560.553 737.63 1560.793 L 737.63 1560.793 L 737.63 1560.793 Q 737.36 1561.033 737.26 1561.583 L 737.26 1561.583 L 737.26 1561.583 Q 737.16 1562.133 737.16 1563.173 L 737.16 1563.173 L 737.16 1563.793 L 737.16 1563.793 Z  M 746.34 1570.853 L 746.34 1570.853 Q 744.94 1570.853 744.07 1569.973 L 744.07 1569.973 L 744.07 1569.973 Q 743.2 1569.093 743.08 1567.613 L 743.08 1567.613 L 744.86 1567.073 L 744.86 1567.073 Q 745.02 1568.193 745.41 1568.733 L 745.41 1568.733 L 745.41 1568.733 Q 745.8 1569.273 746.52 1569.273 L 746.52 1569.273 L 746.52 1569.273 Q 747.08 1569.273 747.39 1568.943 L 747.39 1568.943 L 747.39 1568.943 Q 747.7 1568.613 747.7 1568.053 L 747.7 1568.053 L 747.7 1568.053 Q 747.7 1567.553 747.48 1567.153 L 747.48 1567.153 L 747.48 1567.153 Q 747.26 1566.753 746.76 1566.333 L 746.76 1566.333 L 744.78 1564.633 L 744.78 1564.633 Q 744.1 1564.053 743.73 1563.403 L 743.73 1563.403 L 743.73 1563.403 Q 743.36 1562.753 743.36 1561.813 L 743.36 1561.813 L 743.36 1561.813 Q 743.36 1560.473 744.16 1559.723 L 744.16 1559.723 L 744.16 1559.723 Q 744.96 1558.973 746.34 1558.973 L 746.34 1558.973 L 746.34 1558.973 Q 747.66 1558.973 748.41 1559.823 L 748.41 1559.823 L 748.41 1559.823 Q 749.16 1560.673 749.28 1562.013 L 749.28 1562.013 L 747.84 1562.553 L 747.84 1562.553 Q 747.7 1561.573 747.38 1561.063 L 747.38 1561.063 L 747.38 1561.063 Q 747.06 1560.553 746.42 1560.553 L 746.42 1560.553 L 746.42 1560.553 Q 745.9 1560.553 745.59 1560.893 L 745.59 1560.893 L 745.59 1560.893 Q 745.28 1561.233 745.28 1561.733 L 745.28 1561.733 L 745.28 1561.733 Q 745.28 1562.373 745.86 1562.893 L 745.86 1562.893 L 747.9 1564.773 L 747.9 1564.773 Q 748.68 1565.493 749.11 1566.193 L 749.11 1566.193 L 749.11 1566.193 Q 749.54 1566.893 749.54 1567.893 L 749.54 1567.893 L 749.54 1567.893 Q 749.54 1569.333 748.68 1570.093 L 748.68 1570.093 L 748.68 1570.093 Q 747.82 1570.853 746.34 1570.853 L 746.34 1570.853 L 746.34 1570.853 Z  M 753.82 1570.853 L 753.82 1570.853 Q 752.42 1570.853 751.55 1569.973 L 751.55 1569.973 L 751.55 1569.973 Q 750.68 1569.093 750.56 1567.613 L 750.56 1567.613 L 752.34 1567.073 L 752.34 1567.073 Q 752.5 1568.193 752.89 1568.733 L 752.89 1568.733 L 752.89 1568.733 Q 753.28 1569.273 754 1569.273 L 754 1569.273 L 754 1569.273 Q 754.56 1569.273 754.87 1568.943 L 754.87 1568.943 L 754.87 1568.943 Q 755.18 1568.613 755.18 1568.053 L 755.18 1568.053 L 755.18 1568.053 Q 755.18 1567.553 754.96 1567.153 L 754.96 1567.153 L 754.96 1567.153 Q 754.74 1566.753 754.24 1566.333 L 754.24 1566.333 L 752.26 1564.633 L 752.26 1564.633 Q 751.58 1564.053 751.21 1563.403 L 751.21 1563.403 L 751.21 1563.403 Q 750.84 1562.753 750.84 1561.813 L 750.84 1561.813 L 750.84 1561.813 Q 750.84 1560.473 751.64 1559.723 L 751.64 1559.723 L 751.64 1559.723 Q 752.44 1558.973 753.82 1558.973 L 753.82 1558.973 L 753.82 1558.973 Q 755.14 1558.973 755.89 1559.823 L 755.89 1559.823 L 755.89 1559.823 Q 756.64 1560.673 756.76 1562.013 L 756.76 1562.013 L 755.32 1562.553 L 755.32 1562.553 Q 755.18 1561.573 754.86 1561.063 L 754.86 1561.063 L 754.86 1561.063 Q 754.54 1560.553 753.9 1560.553 L 753.9 1560.553 L 753.9 1560.553 Q 753.38 1560.553 753.07 1560.893 L 753.07 1560.893 L 753.07 1560.893 Q 752.76 1561.233 752.76 1561.733 L 752.76 1561.733 L 752.76 1561.733 Q 752.76 1562.373 753.34 1562.893 L 753.34 1562.893 L 755.38 1564.773 L 755.38 1564.773 Q 756.16 1565.493 756.59 1566.193 L 756.59 1566.193 L 756.59 1566.193 Q 757.02 1566.893 757.02 1567.893 L 757.02 1567.893 L 757.02 1567.893 Q 757.02 1569.333 756.16 1570.093 L 756.16 1570.093 L 756.16 1570.093 Q 755.3 1570.853 753.82 1570.853 L 753.82 1570.853 L 753.82 1570.853 Z " fill="rgb(255,255,255)"/><g><g><g><circle vector-effect="non-scaling-stroke" cx="720.4545454545455" cy="1460.166666666664" r="69.99999999999989" fill="rgb(235,235,235)"/><path d=" M 670.455 1437.944 L 696.566 1509.611 C 678.232 1500.722 665.455 1481.833 665.455 1460.167 C 665.455 1452.389 667.121 1444.611 670.455 1437.944 Z  M 757.677 1457.389 C 757.677 1450.722 755.455 1445.722 753.232 1442.389 C 750.455 1437.944 747.677 1434.056 747.677 1429.611 C 747.677 1424.611 751.566 1419.611 757.121 1419.611 C 757.121 1419.611 757.677 1419.611 757.677 1419.611 C 747.677 1410.722 734.899 1405.167 720.455 1405.167 C 701.566 1405.167 684.343 1415.167 674.899 1429.611 C 676.01 1429.611 677.121 1429.611 678.232 1429.611 C 683.788 1429.611 692.677 1429.056 692.677 1429.056 C 695.455 1429.056 696.01 1433.5 693.232 1433.5 C 693.232 1433.5 690.455 1434.056 687.121 1434.056 L 707.121 1493.5 L 719.343 1457.389 L 711.01 1434.056 C 708.232 1434.056 705.455 1433.5 705.455 1433.5 C 702.677 1433.5 702.677 1429.056 706.01 1429.056 C 706.01 1429.056 714.899 1429.611 720.455 1429.611 C 726.01 1429.611 734.899 1429.056 734.899 1429.056 C 737.677 1429.056 738.232 1433.5 735.455 1433.5 C 735.455 1433.5 732.677 1434.056 729.343 1434.056 L 747.677 1493.5 L 753.232 1475.167 C 755.455 1467.389 757.677 1461.833 757.677 1457.389 Z  M 721.566 1465.167 L 704.899 1512.944 C 709.899 1514.611 714.899 1515.167 720.455 1515.167 C 726.566 1515.167 733.232 1514.056 738.788 1511.833 C 738.788 1511.833 738.232 1511.278 738.232 1511.278 L 721.566 1465.167 Z  M 768.788 1434.056 C 768.788 1435.722 769.343 1437.944 769.343 1439.611 C 769.343 1445.167 768.232 1451.278 764.899 1459.056 L 748.232 1507.389 C 764.343 1497.944 775.455 1480.167 775.455 1460.167 C 775.455 1450.722 772.677 1441.833 768.788 1434.056 Z " fill="rgb(52,152,216)"/><path d=" M 720.455 1385.167 C 679.343 1385.167 645.455 1419.056 645.455 1460.167 C 645.455 1501.278 679.343 1535.167 720.455 1535.167 C 761.566 1535.167 795.455 1501.278 795.455 1460.167 C 795.455 1419.056 761.566 1385.167 720.455 1385.167 Z  M 720.455 1526.278 C 684.343 1526.278 654.343 1496.833 654.343 1460.167 C 654.343 1424.056 683.788 1394.056 720.455 1394.056 C 757.121 1394.056 786.566 1424.056 786.566 1460.167 C 786.566 1496.278 756.566 1526.278 720.455 1526.278 Z " fill="rgb(41,128,185)"/></g></g></g></g></g></svg>